<svg width="78" height="697" viewBox="0 0 78 697" fill="none" xmlns="http://www.w3.org/2000/svg">
<path d="M73.9999 91.71H3.5C1.57 91.71 0 90.14 0 88.21V4.43C0 2.5 1.57 0.93 3.5 0.93C5.43 0.93 7 2.5 7 4.43V84.71H73.9999C75.9299 84.71 77.4999 86.28 77.4999 88.21C77.4999 90.14 75.9299 91.71 73.9999 91.71Z" fill="black"/>
<path d="M73.9999 131.71H3.5C1.57 131.71 0 130.14 0 128.21C0 126.28 1.57 124.71 3.5 124.71H73.9999C75.9299 124.71 77.4999 126.28 77.4999 128.21C77.4999 130.14 75.9299 131.71 73.9999 131.71Z" fill="black"/>
<path d="M73.9999 212.71H3.5C1.57 212.71 0 211.14 0 209.21C0 207.28 1.57 205.71 3.5 205.71H73.9999C75.9299 205.71 77.4999 207.28 77.4999 209.21C77.4999 211.14 75.9299 212.71 73.9999 212.71Z" fill="black"/>
<path d="M58.4999 172.21H3.5C1.57 172.21 0 170.64 0 168.71C0 166.78 1.57 165.21 3.5 165.21H58.4999C60.4299 165.21 61.9999 166.78 61.9999 168.71C61.9999 170.64 60.4299 172.21 58.4999 172.21Z" fill="black"/>
<path d="M73.9999 333.71C73.0099 333.71 72.04 333.29 71.36 332.51L7 258.56V330.21C7 332.14 5.43 333.71 3.5 333.71C1.57 333.71 0 332.14 0 330.21V249.21C0 247.75 0.91002 246.44 2.27002 245.93C3.64002 245.42 5.18001 245.81 6.14001 246.91L70.4999 320.86V249.21C70.4999 247.28 72.0699 245.71 73.9999 245.71C75.9299 245.71 77.4999 247.28 77.4999 249.21V330.21C77.4999 331.67 76.5899 332.98 75.2299 333.49C74.8299 333.64 74.4099 333.71 73.9999 333.71Z" fill="black"/>
<path d="M5.54991 454.71C4.76991 454.71 3.97994 454.45 3.32994 453.92C1.82994 452.69 1.61995 450.49 2.83995 448.99L69.2399 367.99C70.4699 366.5 72.67 366.28 74.17 367.5C75.67 368.73 75.88 370.93 74.66 372.43L8.26 453.43C7.57 454.27 6.55991 454.71 5.54991 454.71Z" fill="black"/>
<path d="M71.9501 424.31H33.2699C31.3399 424.31 29.7699 422.74 29.7699 420.81C29.7699 418.88 31.3399 417.31 33.2699 417.31H71.9501C73.8801 417.31 75.4501 418.88 75.4501 420.81C75.4501 422.74 73.8901 424.31 71.9501 424.31Z" fill="black"/>
<path d="M73.9999 494.71H3.5C1.57 494.71 0 493.14 0 491.21C0 489.28 1.57 487.71 3.5 487.71H73.9999C75.9299 487.71 77.4999 489.28 77.4999 491.21C77.4999 493.14 75.9299 494.71 73.9999 494.71Z" fill="black"/>
<path d="M38.7499 575.71C36.8199 575.71 35.2499 574.14 35.2499 572.21V491.21C35.2499 489.28 36.8199 487.71 38.7499 487.71C40.6799 487.71 42.2499 489.28 42.2499 491.21V572.21C42.2499 574.14 40.6799 575.71 38.7499 575.71Z" fill="black"/>
<path d="M38.7499 696.71C36.8199 696.71 35.2499 695.14 35.2499 693.21V612.21C35.2499 610.28 36.8199 608.71 38.7499 608.71C40.6799 608.71 42.2499 610.28 42.2499 612.21V693.21C42.2499 695.14 40.6799 696.71 38.7499 696.71Z" fill="black"/>
</svg>
