<svg width="81" height="799" viewBox="0 0 81 799" fill="none" xmlns="http://www.w3.org/2000/svg">
<path fill-rule="evenodd" clip-rule="evenodd" d="M5 0C7.76142 0 10 2.23858 10 5V83.78H75.5C78.2614 83.78 80.5 86.0186 80.5 88.78C80.5 91.5414 78.2614 93.78 75.5 93.78H5C2.23858 93.78 0 91.5414 0 88.78V5C0 2.23858 2.23858 0 5 0Z" fill="black"/>
<path fill-rule="evenodd" clip-rule="evenodd" d="M0 148.78C0 146.019 2.23858 143.78 5 143.78H75.5C78.2614 143.78 80.5 146.019 80.5 148.78C80.5 151.541 78.2614 153.78 75.5 153.78H5C2.23858 153.78 0 151.541 0 148.78Z" fill="black"/>
<path fill-rule="evenodd" clip-rule="evenodd" d="M0 229.78C0 227.019 2.23858 224.78 5 224.78H75.5C78.2614 224.78 80.5 227.019 80.5 229.78C80.5 232.541 78.2614 234.78 75.5 234.78H5C2.23858 234.78 0 232.541 0 229.78Z" fill="black"/>
<path fill-rule="evenodd" clip-rule="evenodd" d="M0 189.28C0 186.519 2.23858 184.28 5 184.28H60C62.7614 184.28 65 186.519 65 189.28C65 192.041 62.7614 194.28 60 194.28H5C2.23858 194.28 0 192.041 0 189.28Z" fill="black"/>
<path fill-rule="evenodd" clip-rule="evenodd" d="M3.24752 285.097C5.20067 284.366 7.40238 284.924 8.77152 286.497L70.5 357.419V289.78C70.5 287.019 72.7386 284.78 75.5 284.78C78.2614 284.78 80.5 287.019 80.5 289.78V370.78C80.5 372.865 79.2056 374.732 77.2525 375.463C75.2993 376.194 73.0976 375.636 71.7285 374.063L10 303.141V370.78C10 373.541 7.76142 375.78 5 375.78C2.23858 375.78 0 373.541 0 370.78V289.78C0 287.695 1.29436 285.828 3.24752 285.097Z" fill="black"/>
<path fill-rule="evenodd" clip-rule="evenodd" d="M76.6198 426.913C78.7554 428.664 79.0674 431.814 77.3168 433.95L10.9168 514.95C9.16611 517.085 6.0157 517.397 3.88012 515.647C1.74455 513.896 1.4325 510.746 3.18315 508.61L69.5832 427.61C71.3338 425.475 74.4842 425.162 76.6198 426.913Z" fill="black"/>
<path fill-rule="evenodd" clip-rule="evenodd" d="M29.77 481.38C29.77 478.619 32.0086 476.38 34.77 476.38H73.45C76.2114 476.38 78.45 478.619 78.45 481.38C78.45 484.141 76.2114 486.38 73.45 486.38H34.77C32.0086 486.38 29.77 484.141 29.77 481.38Z" fill="black"/>
<path fill-rule="evenodd" clip-rule="evenodd" d="M0 571.78C0 569.019 2.23858 566.78 5 566.78H75.5C78.2614 566.78 80.5 569.019 80.5 571.78C80.5 574.541 78.2614 576.78 75.5 576.78H5C2.23858 576.78 0 574.541 0 571.78Z" fill="black"/>
<path fill-rule="evenodd" clip-rule="evenodd" d="M40.25 566.78C43.0114 566.78 45.25 569.019 45.25 571.78V652.78C45.25 655.541 43.0114 657.78 40.25 657.78C37.4886 657.78 35.25 655.541 35.25 652.78V571.78C35.25 569.019 37.4886 566.78 40.25 566.78Z" fill="black"/>
<path fill-rule="evenodd" clip-rule="evenodd" d="M40.25 707.78C43.0114 707.78 45.25 710.019 45.25 712.78V793.78C45.25 796.541 43.0114 798.78 40.25 798.78C37.4886 798.78 35.25 796.541 35.25 793.78V712.78C35.25 710.019 37.4886 707.78 40.25 707.78Z" fill="black"/>
</svg>
